# xmcd CD database file
#
# Track frame offsets:
#	182
#	16247
#	29875
#	45132
#	63202
#	76465
#	89355
#	103410
#	118492
#	140250
#	156967
#	177160
#	188377
#	201400
#	217840
#	241090
#	258740
#	270880
#	281555
#	296755
#	310477
#	324710
#
# Disc length: 4525 seconds
#
# Revision: 0
# Processed by: cddbd v1.5.1PL0 Copyright (c) Steve Scherf et al.
# Submitted via: CDex 1.50beta9
#
DISCID=4211ab16
DTITLE=SUSAN McCANN - IRELAND
DYEAR=1900
DGENRE=Country
TTITLE0=Rose Of Clare
TTITLE1=Where The River Shannon Flows
TTITLE2=Isle Of Inisfree
TTITLE3=If Those Lips Could Only Speak
TTITLE4=Noreen Bawn
TTITLE5=Rose Of Tralee
TTITLE6=Cottage On The Old Dungannon Road
TTITLE7=Where Is My Norah
TTITLE8=Rose Of Allendale
TTITLE9=Isle Of Ireland
TTITLE10=Limerick You re A Lady
TTITLE11=Christmas Time In Inisfree
TTITLE12=When The Sun Says Goodbye To The Muntain
TTITLE13=Travelling People
TTITLE14=Village Of Astee
TTITLE15=5'000 Miles From Sligo
TTITLE16=Big Tom Is Still The King
TTITLE17=Heaven Around Galway Bay
TTITLE18=Johnny Lovely Johnny
TTITLE19=Eileen McManus
TTITLE20=Curragh Of kildare
TTITLE21=Nightingale
EXTD=
EXTT0=
EXTT1=
EXTT2=
EXTT3=
EXTT4=
EXTT5=
EXTT6=
EXTT7=
EXTT8=
EXTT9=
EXTT10=
EXTT11=
EXTT12=
EXTT13=
EXTT14=
EXTT15=
EXTT16=
EXTT17=
EXTT18=
EXTT19=
EXTT20=
EXTT21=
PLAYORDER=
